{"title":"Harry.Potter.And.The.Deathly.Hallows.Part.1.TS.XViD-IMAGiNE   (B","uid":5990984,"size":1488272460,"categoryP":"video","categoryS":"movies","magnet":"?xt=urn:btih:70df8b56234e8c0c4eeae38da5e893ebf78bc373&amp;dn=Harry.Potter.And.The.Deathly.Hallows.Part.1.TS.XViD-IMAGiNE+++%28B&amp;tr=udp%3A%2F%2Ftracker.openbittorrent.com%3A80&amp;tr=udp%3A%2F%2Fopen.demonii.com%3A1337&amp;tr=udp%3A%2F%2Ftracker.coppersurfer.tk%3A6969&amp;tr=udp%3A%2F%2Fexodus.desync.com%3A6969","seeders":1,"leechers":0,"uploader":"Kill3rK","files":103,"time":1290890448,"description":"Clean Scene Releases   &lt;a href=&quot; http://bitxtre.me/&quot; rel=&quot;nofollow&quot; target=&quot;_NEW&quot;&gt; http://bitxtre.me/&lt;/a&gt;\n\n\n-------------------------------------------------------------------------------------\n                                   nfo\n\n\n\n\nHarry.Potter.And.The.Deathly.Hallows.Part.1.TS.XViD-IMAGiNE\n\n\n\n          *+*     +*+*+* *+*+*+   *+* *+*   *+*    *+*    *+*     *+*+*   *+* *+*        \n          +*+     +*+ +*+*+ +*+  +*+   +*+  +*+           +*+     *+*+*+  +*+ +*+        \n          +$+     +$+  +*+  +$+ +$++*++$++* *$*           +$+     +$+ +*+ +$+ +$++*++$  \n          +$+     +$+       +$+ +$+     +$+ +$+   +$+$    +$+     +$+  +$+$+$ +$+        \n          $+$     $+$       $+$ $+$     $+$ $+$    $+$    $+$     $+$   $+$+$ $+$        \n      $$$$$$$$$$$ $$$       $$$ $$$     $$$  $$$$$$$$ $$$$$$$$$$$ $$$    $$$$ $$$$$$$$$$    \n                                               \n\n\n\n                          Another Fine Release Brought to you from - IMAGiNE                  \n                                               \n\n********************************************************************************************************************                                \n          Harry Potter And The Deathly Hallows Part 1 TS  XViD - IMAGiNE\n********************************************************************************************************************\n\nRipper ...........: IMAGiNE                                        IMDB Rating.......:8.2/10                            \nVideo Codec.......: XVID                                         Release Date......:27/11/10\nAudio Codec.......:MP3                                           Theatre Date......:19/11/10\nAudio Bitrate.....:128                                              Runtime.......:2hr 09mins\nSubtitles.........:NIL                                                 Language..........:ENGLISH\nResolution...... 720 x 304                                      IMDb URL.......... http://www.imdb.com/title/tt0926084/\n\nDETAILS:\n\nVideo\nID                               : 0\nFormat                           : MPEG-4 Visual\nFormat profile                   : Advanced Simple@L5\nFormat settings, BVOP            : Yes\nFormat settings, QPel            : No\nFormat settings, GMC             : No warppoints\nFormat settings, Matrix          : Default (MPEG)\nMuxing mode                      : Packed bitstream\nCodec ID                         : XVID\nCodec ID/Hint                    : XviD\nDuration                         : 2h 9mn\nBit rate                         : 1 384 Kbps\nWidth                            : 720 pixels\nHeight                           : 304 pixels\nDisplay aspect ratio             : 2.35\nFrame rate                       : 25.000 fps\nResolution                       : 24 bits\nColorimetry                      : 4:2:0\nScan type                        : Progressive\nBits/(Pixel*Frame)               : 0.253\nStream size                      : 1.25 GiB (91%)\nWriting library                  : XviD 1.2.1 (UTC 2008-12-04)\n\nAudio\nID                               : 1\nFormat                           : MPEG Audio\nFormat version                   : Version 1\nFormat profile                   : Layer 3\nCodec ID                         : 55\nCodec ID/Hint                    : MP3\nDuration                         : 2h 9mn\nBit rate mode                    : Constant\nBit rate                         : 128 Kbps\nChannel(s)                       : 2 channels\nSampling rate                    : 44.1 KHz\nResolution                       : 16 bits\nStream size                      : 118 MiB (8%)\nAlignment                        : Split accross interleaves\nInterleave, duration             : 40 ms (1.00 video frame)\nInterleave, preload duration     : 500 ms\n","torrent":{"xt":"urn:btih:70df8b56234e8c0c4eeae38da5e893ebf78bc373","amp;dn":"Harry.Potter.And.The.Deathly.Hallows.Part.1.TS.XViD-IMAGiNE+++%28B","amp;tr":["udp%3A%2F%2Ftracker.openbittorrent.com%3A80","udp%3A%2F%2Fopen.demonii.com%3A1337","udp%3A%2F%2Ftracker.coppersurfer.tk%3A6969","udp%3A%2F%2Fexodus.desync.com%3A6969"],"infoHash":"70df8b56234e8c0c4eeae38da5e893ebf78bc373","infoHashBuffer":{"type":"Buffer","data":[112,223,139,86,35,78,140,12,78,234,227,141,165,232,147,235,247,139,195,115]},"announce":[],"urlList":[]}}